<?xml version="1.0" standalone="no"?>
<!DOCTYPE svg PUBLIC "-//W3C//DTD SVG 20010904//EN"
 "http://www.w3.org/TR/2001/REC-SVG-20010904/DTD/svg10.dtd">
<svg version="1.0" xmlns="http://www.w3.org/2000/svg"
 width="24.000000pt" height="24.000000pt" viewBox="0 0 24.000000 24.000000"
 preserveAspectRatio="xMidYMid meet">

<g transform="translate(0.000000,24.000000) scale(0.100000,-0.100000)"
fill="#000000" stroke="none">
<path d="M110 170 l0 -40 -40 0 c-22 0 -40 -4 -40 -10 0 -5 18 -10 40 -10 l40
0 0 -40 c0 -22 5 -40 10 -40 6 0 10 18 10 40 l0 40 40 0 c22 0 40 5 40 10 0 6
-18 10 -40 10 l-40 0 0 40 c0 22 -4 40 -10 40 -5 0 -10 -18 -10 -40z"/>
</g>
</svg>
